# xmcd
#
# Track frame offsets:
# 150
# 11780
# 23808
# 35054
# 47654
# 56392
# 69605
# 80558
# 91597
# 101398
# 110685
# 122747
# 132868
# 143802
# 156259
# 168757
# 180936
# 191530
# 203564
# 214534
#
# Disc length: 3060 seconds
#
#
# Revision: 0
# Processed by: cddbd v1.5.1PL0 Copyright (c) Steve Scherf et al.
# Submitted via: FreeRIP 2.91 
#
DISCID=050bf214
DTITLE=Helen Shapiro - The Story
DYEAR=1900
DGENRE=Pop
TTITLE0=Don't Treat Me Like A Child
TTITLE1=You Don't Know
TTITLE2=Walkin' Back To Happiness
TTITLE3=Tell Me What He Said
TTITLE4=Let's Talk About Love
TTITLE5=Little Miss Lonely
TTITLE6=Kepp Away From Other Girls
TTITLE7=Daddy Couldn't Get Me One Of Those
TTITLE8=Queen For Tonight
TTITLE9=Woe Is Me
TTITLE10=Not Responsible
TTITLE11=Look Who It Is
TTITLE12=Fever
TTITLE13=Look Over Your Shoulder
TTITLE14=Shop Around
TTITLE15=I Wish I'd Never Loved You
TTITLE16=Tomorrow Is Another Day
TTITLE17=Here In Your Arms
TTITLE18=Forget About The Bad Things
TTITLE19=In My Calendar
EXTD=
EXTT0=
EXTT1=
EXTT2=
EXTT3=
EXTT4=
EXTT5=
EXTT6=
EXTT7=
EXTT8=
EXTT9=
EXTT10=
EXTT11=
EXTT12=
EXTT13=
EXTT14=
EXTT15=
EXTT16=
EXTT17=
EXTT18=
EXTT19=
PLAYORDER=
